<?xml version="1.0" encoding="UTF-8" standalone="no"?>
<!DOCTYPE svg PUBLIC "-//W3C//DTD SVG 1.1//EN" "http://www.w3.org/Graphics/SVG/1.1/DTD/svg11.dtd">
<svg xmlns="http://www.w3.org/2000/svg" xmlns:xlink="http://www.w3.org/1999/xlink" viewBox="0 0 1220 882.4" preserveAspectRatio="xMidYMin meet">
	<!--SVG sankey graphic file generated using 4sg.xsl version 1.0 - conversion factor from values to coordinates is 0.00000135605256937396-->
	<title>Results Budget 2020</title>
	<path id="i-020-2001-1" d="M 240,72.8086832027387 L 245,72.8086832027387 C 395,72.8086832027387 385,92.8086832027387 535,92.8086832027387 L 540,92.8086832027387" style="stroke:lawngreen; stroke-width:5.61736640547747; fill:none; stroke-opacity:0.7; stroke-linejoin:round;"/>
	<path id="i-080-2001-2" d="M 240,530.265880773813 L 245,530.265880773813 C 395,530.265880773813 385,99.939872113774 535,99.939872113774 L 540,99.939872113774" style="stroke:lawngreen; stroke-width:8.64501141659302; fill:none; stroke-opacity:0.7; stroke-linejoin:round;"/>
	<path id="i-2001-110-3" d="M 680,118.349329903504 L 685,118.349329903504 C 835,118.349329903504 825,98.3493299035039 975,98.3493299035039 L 980,98.3493299035039" style="stroke:LightCoral; stroke-width:56.6986598070079; fill:none; stroke-opacity:0.7; stroke-linejoin:round;"/>
	<path id="i-2001-120-4" d="M 680,146.9203744021 L 685,146.9203744021 C 835,146.9203744021 825,150.186763578193 975,150.186763578193 L 980,150.186763578193" style="stroke:LightCoral; stroke-width:0.443429190185285; fill:none; stroke-opacity:0.7; stroke-linejoin:round;"/>
	<path id="i-2001-130-5" d="M 680,147.171244127435 L 685,147.171244127435 C 835,147.171244127435 825,323.954030162336 975,323.954030162336 L 980,323.954030162336" style="stroke:LightCoral; stroke-width:0.0583102604830803; fill:none; stroke-opacity:0.7; stroke-linejoin:round;"/>
	<path id="i-2001-140-6" d="M 680,153.899705766154 L 685,153.899705766154 C 835,153.899705766154 825,351.799808865204 975,351.799808865204 L 980,351.799808865204" style="stroke:LightCoral; stroke-width:13.3986130169564; fill:none; stroke-opacity:0.7; stroke-linejoin:round;"/>
	<path id="i-2001-141-7" d="M 680,160.603758458625 L 685,160.603758458625 C 835,160.603758458625 825,435.348836986532 975,435.348836986532 L 980,435.348836986532" style="stroke:LightCoral; stroke-width:0.00949236798561773; fill:none; stroke-opacity:0.7; stroke-linejoin:round;"/>
	<path id="i-2001-150-8" d="M 680,160.998579944461 L 685,160.998579944461 C 835,160.998579944461 825,454.259524287429 975,454.259524287429 L 980,454.259524287429" style="stroke:LightCoral; stroke-width:0.780150603686534; fill:none; stroke-opacity:0.7; stroke-linejoin:round;"/>
	<path id="i-2001-160-9" d="M 680,161.919143011444 L 685,161.919143011444 C 835,161.919143011444 825,476.280087627249 975,476.280087627249 L 980,476.280087627249" style="stroke:LightCoral; stroke-width:1.06097553027819; fill:none; stroke-opacity:0.7; stroke-linejoin:round;"/>
	<path id="i-190-2001-10" d="M 240,560.576998853829 L 245,560.576998853829 C 395,560.576998853829 385,104.262445624699 535,104.262445624699 L 540,104.262445624699" style="stroke:lawngreen; stroke-width:0.000135605256937396; fill:none; stroke-opacity:0.7; stroke-linejoin:round;"/>
	<path id="i-2001-250-11" d="M 680,162.449969789725 L 685,162.449969789725 C 835,162.449969789725 825,573.460036652094 975,573.460036652094 L 980,573.460036652094" style="stroke:LightCoral; stroke-width:0.000678026284686981; fill:none; stroke-opacity:0.7; stroke-linejoin:round;"/>
	<path id="i-281-2001-12" d="M 240,612.496405098944 L 245,612.496405098944 C 395,612.496405098944 385,122.752900434398 535,122.752900434398 L 540,122.752900434398" style="stroke:silver; stroke-width:36.9807740141404; fill:none; stroke-opacity:0.7; stroke-linejoin:round;"/>
	<path id="i-282-2001-13" d="M 240,656.546146036898 L 245,656.546146036898 C 395,656.546146036898 385,141.344720173657 535,141.344720173657 L 540,141.344720173657" style="stroke:silver; stroke-width:0.202865464378345; fill:none; stroke-opacity:0.7; stroke-linejoin:round;"/>
	<path id="i-2001-284-14" d="M 680,165.741923007137 L 685,165.741923007137 C 835,165.741923007137 825,595.251989869507 975,595.251989869507 L 980,595.251989869507" style="stroke:silver; stroke-width:6.58322840853977; fill:none; stroke-opacity:0.7; stroke-linejoin:round;"/>
	<path id="i-2001-285-15" d="M 680,169.047368947615 L 685,169.047368947615 C 835,169.047368947615 825,647.71290261428 975,647.71290261428 L 980,647.71290261428" style="stroke:silver; stroke-width:0.0276634724152288; fill:none; stroke-opacity:0.7; stroke-linejoin:round;"/>
	<path id="i-320-2001-16" d="M 240,684.084787517778 L 245,684.084787517778 C 395,684.084787517778 385,141.778385785343 535,141.778385785343 L 540,141.778385785343" style="stroke:lawngreen; stroke-width:0.664465758993241; fill:none; stroke-opacity:0.7; stroke-linejoin:round;"/>
	<path id="i-020-2002-17" d="M 240,89.4817834800138 L 245,89.4817834800138 C 395,89.4817834800138 385,194.925617758359 535,194.925617758359 L 540,194.925617758359" style="stroke:lawngreen; stroke-width:27.7288341490726; fill:none; stroke-opacity:0.7; stroke-linejoin:round;"/>
	<path id="i-070-2002-18" d="M 240,500.604108466642 L 245,500.604108466642 C 395,500.604108466642 385,208.878720670933 535,208.878720670933 L 540,208.878720670933" style="stroke:lawngreen; stroke-width:0.177371676074114; fill:none; stroke-opacity:0.7; stroke-linejoin:round;"/>
	<path id="i-080-2002-19" d="M 240,534.593471679245 L 245,534.593471679245 C 395,534.593471679245 385,208.972491706105 535,208.972491706105 L 540,208.972491706105" style="stroke:lawngreen; stroke-width:0.0101703942703047; fill:none; stroke-opacity:0.7; stroke-linejoin:round;"/>
	<path id="i-2002-110-20" d="M 680,181.103373918731 L 685,181.103373918731 C 835,181.103373918731 825,126.740833041915 975,126.740833041915 L 980,126.740833041915" style="stroke:LightCoral; stroke-width:0.0843464698150604; fill:none; stroke-opacity:0.7; stroke-linejoin:round;"/>
	<path id="i-2002-120-21" d="M 680,181.164735297495 L 685,181.164735297495 C 835,181.164735297495 825,150.427666317142 975,150.427666317142 L 980,150.427666317142" style="stroke:LightCoral; stroke-width:0.0383762877132831; fill:none; stroke-opacity:0.7; stroke-linejoin:round;"/>
	<path id="i-2002-130-22" d="M 680,181.194636256649 L 685,181.194636256649 C 835,181.194636256649 825,323.993898107875 975,323.993898107875 L 980,323.993898107875" style="stroke:LightCoral; stroke-width:0.0214256305961086; fill:none; stroke-opacity:0.7; stroke-linejoin:round;"/>
	<path id="i-2002-140-23" d="M 680,198.265622698567 L 685,198.265622698567 C 835,198.265622698567 825,375.559389000302 975,375.559389000302 L 980,375.559389000302" style="stroke:LightCoral; stroke-width:34.1205472532397; fill:none; stroke-opacity:0.7; stroke-linejoin:round;"/>
	<path id="i-2002-150-24" d="M 680,215.328527067172 L 685,215.328527067172 C 835,215.328527067172 825,454.652230331257 975,454.652230331257 L 980,454.652230331257" style="stroke:LightCoral; stroke-width:0.00526148396917097; fill:none; stroke-opacity:0.7; stroke-linejoin:round;"/>
	<path id="i-2002-160-25" d="M 680,215.443574567157 L 685,215.443574567157 C 835,215.443574567157 825,476.922992150389 975,476.922992150389 L 980,476.922992150389" style="stroke:LightCoral; stroke-width:0.224833516002203; fill:none; stroke-opacity:0.7; stroke-linejoin:round;"/>
	<path id="i-190-2002-26" d="M 240,560.596390405571 L 245,560.596390405571 C 395,560.596390405571 385,208.996900652354 535,208.996900652354 L 540,208.996900652354" style="stroke:lawngreen; stroke-width:0.0386474982271579; fill:none; stroke-opacity:0.7; stroke-linejoin:round;"/>
	<path id="i-281-2002-27" d="M 240,630.995606447715 L 245,630.995606447715 C 395,630.995606447715 385,209.025038743168 535,209.025038743168 L 540,209.025038743168" style="stroke:silver; stroke-width:0.0176286834018615; fill:none; stroke-opacity:0.7; stroke-linejoin:round;"/>
	<path id="i-282-2002-28" d="M 240,656.710499608306 L 245,656.710499608306 C 395,656.710499608306 385,209.096773924088 535,209.096773924088 L 540,209.096773924088" style="stroke:silver; stroke-width:0.125841678437904; fill:none; stroke-opacity:0.7; stroke-linejoin:round;"/>
	<path id="i-2002-284-29" d="M 680,217.769543736776 L 685,217.769543736776 C 835,217.769543736776 825,600.757156485394 975,600.757156485394 L 980,600.757156485394" style="stroke:silver; stroke-width:4.42710482323517; fill:none; stroke-opacity:0.7; stroke-linejoin:round;"/>
	<path id="i-2002-285-30" d="M 680,220.000046805511 L 685,220.000046805511 C 835,220.000046805511 825,647.743685007604 975,647.743685007604 L 980,647.743685007604" style="stroke:silver; stroke-width:0.033901314234349; fill:none; stroke-opacity:0.7; stroke-linejoin:round;"/>
	<path id="i-2002-310-31" d="M 680,220.077002788823 L 685,220.077002788823 C 835,220.077002788823 825,668.366917537839 975,668.366917537839 L 980,668.366917537839" style="stroke:LightCoral; stroke-width:0.120010652389596; fill:none; stroke-opacity:0.7; stroke-linejoin:round;"/>
	<path id="i-320-2002-32" d="M 240,685.344967170497 L 245,685.344967170497 C 395,685.344967170497 385,210.08764153653 535,210.08764153653 L 540,210.08764153653" style="stroke:lawngreen; stroke-width:1.8558935464452; fill:none; stroke-opacity:0.7; stroke-linejoin:round;"/>
	<path id="i-020-2003-33" d="M 240,103.662567618985 L 245,103.662567618985 C 395,103.662567618985 385,232.453375179452 535,232.453375179452 L 540,232.453375179452" style="stroke:lawngreen; stroke-width:0.63273412886989; fill:none; stroke-opacity:0.7; stroke-linejoin:round;"/>
	<path id="i-030-2003-34" d="M 240,136.464286430805 L 245,136.464286430805 C 395,136.464286430805 385,232.769850728092 535,232.769850728092 L 540,232.769850728092" style="stroke:lawngreen; stroke-width:0.000216968411099834; fill:none; stroke-opacity:0.7; stroke-linejoin:round;"/>
	<path id="i-035-2003-35" d="M 240,263.607341883409 L 245,263.607341883409 C 395,263.607341883409 385,299.208602204091 535,299.208602204091 L 540,299.208602204091" style="stroke:lawngreen; stroke-width:132.877285983587; fill:none; stroke-opacity:0.7; stroke-linejoin:round;"/>
	<path id="i-050-2003-36" d="M 240,473.857666116529 L 245,473.857666116529 C 395,473.857666116529 385,366.867692508321 535,366.867692508321 L 540,366.867692508321" style="stroke:lawngreen; stroke-width:2.44089462487313; fill:none; stroke-opacity:0.7; stroke-linejoin:round;"/>
	<path id="i-080-2003-37" d="M 240,534.926721598169 L 245,534.926721598169 C 395,534.926721598169 385,368.416304542546 535,368.416304542546 L 540,368.416304542546" style="stroke:lawngreen; stroke-width:0.656329443576997; fill:none; stroke-opacity:0.7; stroke-linejoin:round;"/>
	<path id="i-2003-120-38" d="M 680,232.543823885829 L 685,232.543823885829 C 835,232.543823885829 825,150.853670231811 975,150.853670231811 L 980,150.853670231811" style="stroke:LightCoral; stroke-width:0.813631541624377; fill:none; stroke-opacity:0.7; stroke-linejoin:round;"/>
	<path id="i-2003-140-39" d="M 680,233.950965735754 L 685,233.950965735754 C 835,233.950965735754 825,393.619988706035 975,393.619988706035 L 980,393.619988706035" style="stroke:LightCoral; stroke-width:2.00065215822587; fill:none; stroke-opacity:0.7; stroke-linejoin:round;"/>
	<path id="i-2003-150-40" d="M 680,235.179210350465 L 685,235.179210350465 C 835,235.179210350465 825,454.882779608839 975,454.882779608839 L 980,454.882779608839" style="stroke:LightCoral; stroke-width:0.455837071195057; fill:none; stroke-opacity:0.7; stroke-linejoin:round;"/>
	<path id="i-2003-160-41" d="M 680,235.41407865548 L 685,235.41407865548 C 835,235.41407865548 825,477.042358677808 975,477.042358677808 L 980,477.042358677808" style="stroke:LightCoral; stroke-width:0.0138995388360831; fill:none; stroke-opacity:0.7; stroke-linejoin:round;"/>
	<path id="i-2003-161-42" d="M 680,236.431287589082 L 685,236.431287589082 C 835,236.431287589082 825,499.647570522389 975,499.647570522389 L 980,499.647570522389" style="stroke:LightCoral; stroke-width:2.0205183283672; fill:none; stroke-opacity:0.7; stroke-linejoin:round;"/>
	<path id="i-190-2003-43" d="M 240,564.697296783244 L 245,564.697296783244 C 395,564.697296783244 385,372.826051892893 535,372.826051892893 L 540,372.826051892893" style="stroke:lawngreen; stroke-width:8.16316525711737; fill:none; stroke-opacity:0.7; stroke-linejoin:round;"/>
	<path id="i-282-2003-44" d="M 240,656.900685981161 L 245,656.900685981161 C 395,656.900685981161 385,377.034900055088 535,377.034900055088 L 540,377.034900055088" style="stroke:silver; stroke-width:0.254531067271493; fill:none; stroke-opacity:0.7; stroke-linejoin:round;"/>
	<path id="i-2003-284-45" d="M 680,239.962787492874 L 685,239.962787492874 C 835,239.962787492874 825,605.49194963662 975,605.49194963662 L 980,605.49194963662" style="stroke:silver; stroke-width:5.04248147921708; fill:none; stroke-opacity:0.7; stroke-linejoin:round;"/>
	<path id="i-2003-285-46" d="M 680,242.721337432123 L 685,242.721337432123 C 835,242.721337432123 825,647.997944864362 975,647.997944864362 L 980,647.997944864362" style="stroke:silver; stroke-width:0.474618399280886; fill:none; stroke-opacity:0.7; stroke-linejoin:round;"/>
	<path id="i-2003-310-47" d="M 680,244.288411444054 L 685,244.288411444054 C 835,244.288411444054 825,669.756687676324 975,669.756687676324 L 980,669.756687676324" style="stroke:LightCoral; stroke-width:2.65952962458072; fill:none; stroke-opacity:0.7; stroke-linejoin:round;"/>
	<path id="i-2003-311-48" d="M 680,246.431807797969 L 685,246.431807797969 C 835,246.431807797969 825,692.785358802926 975,692.785358802926 L 980,692.785358802926" style="stroke:LightCoral; stroke-width:1.62726308324875; fill:none; stroke-opacity:0.7; stroke-linejoin:round;"/>
	<path id="i-320-2003-49" d="M 240,686.376312952134 L 245,686.376312952134 C 395,686.376312952134 385,377.265564597138 535,377.265564597138 L 540,377.265564597138" style="stroke:lawngreen; stroke-width:0.206798016829529; fill:none; stroke-opacity:0.7; stroke-linejoin:round;"/>
	<path id="i-2003-325-50" d="M 680,247.248829471016 L 685,247.248829471016 C 835,247.248829471016 825,712.102380475974 975,712.102380475974 L 980,712.102380475974" style="stroke:LightCoral; stroke-width:0.00678026284686981; fill:none; stroke-opacity:0.7; stroke-linejoin:round;"/>
	<path id="i-020-2004-51" d="M 240,104.277266248682 L 245,104.277266248682 C 395,104.277266248682 385,389.667295170815 535,389.667295170815 L 540,389.667295170815" style="stroke:lawngreen; stroke-width:0.596663130524543; fill:none; stroke-opacity:0.7; stroke-linejoin:round;"/>
	<path id="i-030-2004-52" d="M 240,136.475243335565 L 245,136.475243335565 C 395,136.475243335565 385,389.976475156632 535,389.976475156632 L 540,389.976475156632" style="stroke:lawngreen; stroke-width:0.0216968411099834; fill:none; stroke-opacity:0.7; stroke-linejoin:round;"/>
	<path id="i-050-2004-53" d="M 240,475.109980664345 L 245,475.109980664345 C 395,475.109980664345 385,390.019190812568 535,390.019190812568 L 540,390.019190812568" style="stroke:lawngreen; stroke-width:0.0637344707605762; fill:none; stroke-opacity:0.7; stroke-linejoin:round;"/>
	<path id="i-070-2004-54" d="M 240,500.693675738849 L 245,500.693675738849 C 395,500.693675738849 385,390.051939482118 535,390.051939482118 L 540,390.051939482118" style="stroke:lawngreen; stroke-width:0.00176286834018615; fill:none; stroke-opacity:0.7; stroke-linejoin:round;"/>
	<path id="i-080-2004-55" d="M 240,535.269328279821 L 245,535.269328279821 C 395,535.269328279821 385,390.067262876152 535,390.067262876152 L 540,390.067262876152" style="stroke:lawngreen; stroke-width:0.0288839197276654; fill:none; stroke-opacity:0.7; stroke-linejoin:round;"/>
	<path id="i-2004-110-56" d="M 680,389.374252210574 L 685,389.374252210574 C 835,389.374252210574 825,126.788294881843 975,126.788294881843 L 980,126.788294881843" style="stroke:LightCoral; stroke-width:0.0105772100411169; fill:none; stroke-opacity:0.7; stroke-linejoin:round;"/>
	<path id="i-2004-120-57" d="M 680,395.681252710732 L 685,395.681252710732 C 835,395.681252710732 825,157.562197897761 975,157.562197897761 L 980,157.562197897761" style="stroke:LightCoral; stroke-width:12.6034237902755; fill:none; stroke-opacity:0.7; stroke-linejoin:round;"/>
	<path id="i-2004-130-58" d="M 680,402.162980584454 L 685,402.162980584454 C 835,402.162980584454 825,324.184626901758 975,324.184626901758 L 980,324.184626901758" style="stroke:LightCoral; stroke-width:0.360031957168787; fill:none; stroke-opacity:0.7; stroke-linejoin:round;"/>
	<path id="i-2004-140-59" d="M 680,403.851096526753 L 685,403.851096526753 C 835,403.851096526753 825,396.128414748863 975,396.128414748863 L 980,396.128414748863" style="stroke:LightCoral; stroke-width:3.01619992743003; fill:none; stroke-opacity:0.7; stroke-linejoin:round;"/>
	<path id="i-2004-141-60" d="M 680,405.360552543038 L 685,405.360552543038 C 835,405.360552543038 825,435.354939223094 975,435.354939223094 L 980,435.354939223094" style="stroke:LightCoral; stroke-width:0.00271210513874792; fill:none; stroke-opacity:0.7; stroke-linejoin:round;"/>
	<path id="i-2004-150-61" d="M 680,405.731907539161 L 685,405.731907539161 C 835,405.731907539161 825,455.48069708799 975,455.48069708799 L 980,455.48069708799" style="stroke:LightCoral; stroke-width:0.739997887107371; fill:none; stroke-opacity:0.7; stroke-linejoin:round;"/>
	<path id="i-2004-160-62" d="M 680,406.259140778133 L 685,406.259140778133 C 835,406.259140778133 825,477.206542742645 975,477.206542742645 L 980,477.206542742645" style="stroke:LightCoral; stroke-width:0.314468590837822; fill:none; stroke-opacity:0.7; stroke-linejoin:round;"/>
	<path id="i-282-2004-63" d="M 240,657.028087120054 L 245,657.028087120054 C 395,657.028087120054 385,390.081840441273 535,390.081840441273 L 540,390.081840441273" style="stroke:silver; stroke-width:0.000271210513874792; fill:none; stroke-opacity:0.7; stroke-linejoin:round;"/>
	<path id="i-2004-284-64" d="M 680,408.219992793448 L 685,408.219992793448 C 835,408.219992793448 825,609.816808096125 975,609.816808096125 L 980,609.816808096125" style="stroke:silver; stroke-width:3.60723543979167; fill:none; stroke-opacity:0.7; stroke-linejoin:round;"/>
	<path id="i-2004-285-65" d="M 680,410.096023720549 L 685,410.096023720549 C 835,410.096023720549 825,648.307667271207 975,648.307667271207 L 980,648.307667271207" style="stroke:silver; stroke-width:0.144826414409139; fill:none; stroke-opacity:0.7; stroke-linejoin:round;"/>
	<path id="i-2004-310-66" d="M 680,410.283158975122 L 685,410.283158975122 C 835,410.283158975122 825,671.201174535983 975,671.201174535983 L 980,671.201174535983" style="stroke:LightCoral; stroke-width:0.229444094738074; fill:none; stroke-opacity:0.7; stroke-linejoin:round;"/>
	<path id="i-320-2004-67" d="M 240,687.03182876417 L 245,687.03182876417 C 395,687.03182876417 385,390.63409285015 535,390.63409285015 L 540,390.63409285015" style="stroke:lawngreen; stroke-width:1.10423360724122; fill:none; stroke-opacity:0.7; stroke-linejoin:round;"/>
	<path id="i-321-2004-68" d="M 240,715.283936963637 L 245,715.283936963637 C 395,715.283936963637 385,391.245197940539 535,391.245197940539 L 540,391.245197940539" style="stroke:lawngreen; stroke-width:0.117976573535535; fill:none; stroke-opacity:0.7; stroke-linejoin:round;"/>
	<path id="i-020-2005-69" d="M 240,104.62848386415 L 245,104.62848386415 C 395,104.62848386415 385,422.450767072698 535,422.450767072698 L 540,422.450767072698" style="stroke:lawngreen; stroke-width:0.105772100411169; fill:none; stroke-opacity:0.7; stroke-linejoin:round;"/>
	<path id="i-070-2005-70" d="M 240,500.705405593574 L 245,500.705405593574 C 395,500.705405593574 385,422.514501543458 535,422.514501543458 L 540,422.514501543458" style="stroke:lawngreen; stroke-width:0.0216968411099834; fill:none; stroke-opacity:0.7; stroke-linejoin:round;"/>
	<path id="i-2005-120-71" d="M 680,426.50427941307 L 685,426.50427941307 C 835,426.50427941307 825,167.970308183477 975,167.970308183477 L 980,167.970308183477" style="stroke:LightCoral; stroke-width:8.21279678115646; fill:none; stroke-opacity:0.7; stroke-linejoin:round;"/>
	<path id="i-2005-140-72" d="M 680,431.036817323574 L 685,431.036817323574 C 835,431.036817323574 825,398.062654232504 975,398.062654232504 L 980,398.062654232504" style="stroke:LightCoral; stroke-width:0.852279039851535; fill:none; stroke-opacity:0.7; stroke-linejoin:round;"/>
	<path id="i-2005-150-73" d="M 680,431.524386024893 L 685,431.524386024893 C 835,431.524386024893 825,455.912125212937 975,455.912125212937 L 980,455.912125212937" style="stroke:LightCoral; stroke-width:0.122858362785281; fill:none; stroke-opacity:0.7; stroke-linejoin:round;"/>
	<path id="i-2005-160-74" d="M 680,431.586357627313 L 685,431.586357627313 C 835,431.586357627313 825,477.364319459092 975,477.364319459092 L 980,477.364319459092" style="stroke:LightCoral; stroke-width:0.00108484205549917; fill:none; stroke-opacity:0.7; stroke-linejoin:round;"/>
	<path id="i-2005-284-75" d="M 680,432.169121219002 L 685,432.169121219002 C 835,432.169121219002 825,612.202646986681 975,612.202646986681 L 980,612.202646986681" style="stroke:silver; stroke-width:1.16444234132142; fill:none; stroke-opacity:0.7; stroke-linejoin:round;"/>
	<path id="i-2005-285-76" d="M 680,432.761580586561 L 685,432.761580586561 C 835,432.761580586561 825,648.39031867531 975,648.39031867531 L 980,648.39031867531" style="stroke:silver; stroke-width:0.0204763937975468; fill:none; stroke-opacity:0.7; stroke-linejoin:round;"/>
	<path id="i-2005-310-77" d="M 680,432.781311151445 L 685,432.781311151445 C 835,432.781311151445 825,671.325388951338 975,671.325388951338 L 980,671.325388951338" style="stroke:LightCoral; stroke-width:0.0189847359712355; fill:none; stroke-opacity:0.7; stroke-linejoin:round;"/>
	<path id="i-320-2005-78" d="M 240,687.708024377888 L 245,687.708024377888 C 395,687.708024377888 385,422.649428774111 535,422.649428774111 L 540,422.649428774111" style="stroke:lawngreen; stroke-width:0.248157620195435; fill:none; stroke-opacity:0.7; stroke-linejoin:round;"/>
	<path id="i-321-2005-79" d="M 240,715.492091033036 L 245,715.492091033036 C 395,715.492091033036 385,422.92267336684 535,422.92267336684 L 540,422.92267336684" style="stroke:lawngreen; stroke-width:0.298331565262272; fill:none; stroke-opacity:0.7; stroke-linejoin:round;"/>
	<path id="i-020-2006-80" d="M 240,104.818670237005 L 245,104.818670237005 C 395,104.818670237005 385,444.928103842079 535,444.928103842079 L 540,444.928103842079" style="stroke:lawngreen; stroke-width:0.274600645298227; fill:none; stroke-opacity:0.7; stroke-linejoin:round;"/>
	<path id="i-030-2006-81" d="M 240,136.558030344925 L 245,136.558030344925 C 395,136.558030344925 385,445.137342753534 535,445.137342753534 L 540,445.137342753534" style="stroke:lawngreen; stroke-width:0.143877177610577; fill:none; stroke-opacity:0.7; stroke-linejoin:round;"/>
	<path id="i-040-2006-82" d="M 240,446.568328120265 L 245,446.568328120265 C 395,446.568328120265 385,445.255048116555 535,445.255048116555 L 540,445.255048116555" style="stroke:lawngreen; stroke-width:0.0915335484327424; fill:none; stroke-opacity:0.7; stroke-linejoin:round;"/>
	<path id="i-070-2006-83" d="M 240,500.724525934802 L 245,500.724525934802 C 395,500.724525934802 385,445.309086811445 535,445.309086811445 L 540,445.309086811445" style="stroke:lawngreen; stroke-width:0.0165438413463623; fill:none; stroke-opacity:0.7; stroke-linejoin:round;"/>
	<path id="i-080-2006-84" d="M 240,535.290482699903 L 245,535.290482699903 C 395,535.290482699903 385,445.324071192336 535,445.324071192336 L 540,445.324071192336" style="stroke:lawngreen; stroke-width:0.0134249204368022; fill:none; stroke-opacity:0.7; stroke-linejoin:round;"/>
	<path id="i-2006-110-85" d="M 680,444.870742818395 L 685,444.870742818395 C 835,444.870742818395 825,126.873522785829 975,126.873522785829 L 980,126.873522785829" style="stroke:LightCoral; stroke-width:0.15987859792919; fill:none; stroke-opacity:0.7; stroke-linejoin:round;"/>
	<path id="i-2006-120-86" d="M 680,447.517960841698 L 685,447.517960841698 C 835,447.517960841698 825,174.643985298394 975,174.643985298394 L 980,174.643985298394" style="stroke:LightCoral; stroke-width:5.13455744867757; fill:none; stroke-opacity:0.7; stroke-linejoin:round;"/>
	<path id="i-2006-130-87" d="M 680,450.26484872885 L 685,450.26484872885 C 835,450.26484872885 825,324.544252043156 975,324.544252043156 L 980,324.544252043156" style="stroke:LightCoral; stroke-width:0.359218325627162; fill:none; stroke-opacity:0.7; stroke-linejoin:round;"/>
	<path id="i-2006-140-88" d="M 680,451.219170724547 L 685,451.219170724547 C 835,451.219170724547 825,399.263506585313 975,399.263506585313 L 980,399.263506585313" style="stroke:LightCoral; stroke-width:1.54942566576669; fill:none; stroke-opacity:0.7; stroke-linejoin:round;"/>
	<path id="i-2006-141-89" d="M 680,451.994561583715 L 685,451.994561583715 C 835,451.994561583715 825,435.356973301948 975,435.356973301948 L 980,435.356973301948" style="stroke:LightCoral; stroke-width:0.00135605256937396; fill:none; stroke-opacity:0.7; stroke-linejoin:round;"/>
	<path id="i-2006-150-90" d="M 680,452.015987214311 L 685,452.015987214311 C 835,452.015987214311 825,455.994301998641 975,455.994301998641 L 980,455.994301998641" style="stroke:LightCoral; stroke-width:0.0414952086228432; fill:none; stroke-opacity:0.7; stroke-linejoin:round;"/>
	<path id="i-2006-160-91" d="M 680,452.116199499188 L 685,452.116199499188 C 835,452.116199499188 825,477.444326560685 975,477.444326560685 L 980,477.444326560685" style="stroke:LightCoral; stroke-width:0.158929361130628; fill:none; stroke-opacity:0.7; stroke-linejoin:round;"/>
	<path id="i-281-2006-92" d="M 240,631.070324944288 L 245,631.070324944288 C 395,631.070324944288 385,445.396687807426 535,445.396687807426 L 540,445.396687807426" style="stroke:silver; stroke-width:0.131808309743149; fill:none; stroke-opacity:0.7; stroke-linejoin:round;"/>
	<path id="i-2006-284-93" d="M 680,453.55646293312 L 685,453.55646293312 C 835,453.55646293312 825,614.145666910709 975,614.145666910709 L 980,614.145666910709" style="stroke:silver; stroke-width:2.72159750673354; fill:none; stroke-opacity:0.7; stroke-linejoin:round;"/>
	<path id="i-2006-285-94" d="M 680,454.951163000721 L 685,454.951163000721 C 835,454.951163000721 825,648.434458186443 975,648.434458186443 L 980,648.434458186443" style="stroke:silver; stroke-width:0.0678026284686981; fill:none; stroke-opacity:0.7; stroke-linejoin:round;"/>
	<path id="i-2006-310-95" d="M 680,455.796729580355 L 685,455.796729580355 C 835,455.796729580355 825,672.146546584722 975,672.146546584722 L 980,672.146546584722" style="stroke:LightCoral; stroke-width:1.62333053079757; fill:none; stroke-opacity:0.7; stroke-linejoin:round;"/>
	<path id="i-320-2006-96" d="M 240,688.091922860278 L 245,688.091922860278 C 395,688.091922860278 385,445.72241163459 535,445.72241163459 L 540,445.72241163459" style="stroke:lawngreen; stroke-width:0.519639344584102; fill:none; stroke-opacity:0.7; stroke-linejoin:round;"/>
	<path id="i-321-2006-97" d="M 240,715.790422598298 L 245,715.790422598298 C 395,715.790422598298 385,446.131397089513 535,446.131397089513 L 540,446.131397089513" style="stroke:lawngreen; stroke-width:0.298331565262272; fill:none; stroke-opacity:0.7; stroke-linejoin:round;"/>
	<path id="i-035-2007-98" d="M 240,375.684273110626 L 245,375.684273110626 C 395,375.684273110626 385,514.246683081177 535,514.246683081177 L 540,514.246683081177" style="stroke:lawngreen; stroke-width:91.276576470846; fill:none; stroke-opacity:0.7; stroke-linejoin:round;"/>
	<path id="i-040-2007-99" d="M 240,446.763260677113 L 245,446.763260677113 C 395,446.763260677113 385,560.034137099231 535,560.034137099231 L 540,560.034137099231" style="stroke:lawngreen; stroke-width:0.298331565262272; fill:none; stroke-opacity:0.7; stroke-linejoin:round;"/>
	<path id="i-2007-120-100" d="M 680,517.632271728505 L 685,517.632271728505 C 835,517.632271728505 825,226.235140905483 975,226.235140905483 L 980,226.235140905483" style="stroke:LightCoral; stroke-width:98.047753765501; fill:none; stroke-opacity:0.7; stroke-linejoin:round;"/>
	<path id="i-2007-130-101" d="M 680,566.897458165975 L 685,566.897458165975 C 835,566.897458165975 825,324.965170760689 975,324.965170760689 L 980,324.965170760689" style="stroke:LightCoral; stroke-width:0.482619109440193; fill:none; stroke-opacity:0.7; stroke-linejoin:round;"/>
	<path id="i-2007-140-102" d="M 680,568.955471347886 L 685,568.955471347886 C 835,568.955471347886 825,401.854923045386 975,401.854923045386 L 980,401.854923045386" style="stroke:LightCoral; stroke-width:3.63340725438059; fill:none; stroke-opacity:0.7; stroke-linejoin:round;"/>
	<path id="i-2007-141-103" d="M 680,570.773531027645 L 685,570.773531027645 C 835,570.773531027645 825,435.359007380802 975,435.359007380802 L 980,435.359007380802" style="stroke:LightCoral; stroke-width:0.00271210513874792; fill:none; stroke-opacity:0.7; stroke-linejoin:round;"/>
	<path id="i-2007-160-104" d="M 680,570.808788394449 L 685,570.808788394449 C 835,570.808788394449 825,477.557692555485 975,477.557692555485 L 980,477.557692555485" style="stroke:LightCoral; stroke-width:0.0678026284686981; fill:none; stroke-opacity:0.7; stroke-linejoin:round;"/>
	<path id="i-282-2007-105" d="M 240,657.167218113672 L 245,657.167218113672 C 395,657.167218113672 385,560.322298270223 535,560.322298270223 L 540,560.322298270223" style="stroke:silver; stroke-width:0.277990776721662; fill:none; stroke-opacity:0.7; stroke-linejoin:round;"/>
	<path id="i-2007-284-106" d="M 680,571.817013479778 L 685,571.817013479778 C 835,571.817013479778 825,616.480789435171 975,616.480789435171 L 980,616.480789435171" style="stroke:silver; stroke-width:1.94864754219038; fill:none; stroke-opacity:0.7; stroke-linejoin:round;"/>
	<path id="i-2007-310-107" d="M 680,572.943893164928 L 685,572.943893164928 C 835,572.943893164928 825,673.110767764176 975,673.110767764176 L 980,673.110767764176" style="stroke:LightCoral; stroke-width:0.305111828109141; fill:none; stroke-opacity:0.7; stroke-linejoin:round;"/>
	<path id="i-320-2007-108" d="M 240,688.429715555309 L 245,688.429715555309 C 395,688.429715555309 385,560.539266681323 535,560.539266681323 L 540,560.539266681323" style="stroke:lawngreen; stroke-width:0.155946045478006; fill:none; stroke-opacity:0.7; stroke-linejoin:round;"/>
	<path id="i-321-2007-109" d="M 240,716.288297299144 L 245,716.288297299144 C 395,716.288297299144 385,560.965948622276 535,560.965948622276 L 540,560.965948622276" style="stroke:lawngreen; stroke-width:0.697417836429028; fill:none; stroke-opacity:0.7; stroke-linejoin:round;"/>
	<path id="i-2007-325-110" d="M 680,575.735191773728 L 685,575.735191773728 C 835,575.735191773728 825,714.744513302143 975,714.744513302143 L 980,714.744513302143" style="stroke:LightCoral; stroke-width:5.27748538948958; fill:none; stroke-opacity:0.7; stroke-linejoin:round;"/>
	<path id="i-020-2008-111" d="M 240,105.394151826396 L 245,105.394151826396 C 395,105.394151826396 385,590.812115735214 535,590.812115735214 L 540,590.812115735214" style="stroke:lawngreen; stroke-width:0.876362533483616; fill:none; stroke-opacity:0.7; stroke-linejoin:round;"/>
	<path id="i-030-2008-112" d="M 240,136.670650510812 L 245,136.670650510812 C 395,136.670650510812 385,591.290978579037 535,591.290978579037 L 540,591.290978579037" style="stroke:lawngreen; stroke-width:0.0813631541624377; fill:none; stroke-opacity:0.7; stroke-linejoin:round;"/>
	<path id="i-040-2008-113" d="M 240,447.174822631918 L 245,447.174822631918 C 395,447.174822631918 385,591.594056328292 535,591.594056328292 L 540,591.594056328292" style="stroke:lawngreen; stroke-width:0.524792344347723; fill:none; stroke-opacity:0.7; stroke-linejoin:round;"/>
	<path id="i-050-2008-114" d="M 240,475.228635264166 L 245,475.228635264166 C 395,475.228635264166 385,591.943239864906 535,591.943239864906 L 540,591.943239864906" style="stroke:lawngreen; stroke-width:0.173574728879867; fill:none; stroke-opacity:0.7; stroke-linejoin:round;"/>
	<path id="i-080-2008-115" d="M 240,535.299568252118 L 245,535.299568252118 C 395,535.299568252118 385,592.032400321342 535,592.032400321342 L 540,592.032400321342" style="stroke:lawngreen; stroke-width:0.00474618399280886; fill:none; stroke-opacity:0.7; stroke-linejoin:round;"/>
	<path id="i-2008-110-116" d="M 680,592.626337786202 L 685,592.626337786202 C 835,592.626337786202 825,129.205865402523 975,129.205865402523 L 980,129.205865402523" style="stroke:LightCoral; stroke-width:4.5048066354603; fill:none; stroke-opacity:0.7; stroke-linejoin:round;"/>
	<path id="i-2008-120-117" d="M 680,597.351733493123 L 685,597.351733493123 C 835,597.351733493123 825,277.732010177424 975,277.732010177424 L 980,277.732010177424" style="stroke:LightCoral; stroke-width:4.94598477838042; fill:none; stroke-opacity:0.7; stroke-linejoin:round;"/>
	<path id="i-2008-140-118" d="M 680,601.477042036781 L 685,601.477042036781 C 835,601.477042036781 825,405.323942827045 975,405.323942827045 L 980,405.323942827045" style="stroke:LightCoral; stroke-width:3.30463230893587; fill:none; stroke-opacity:0.7; stroke-linejoin:round;"/>
	<path id="i-2008-150-119" d="M 680,603.166107215879 L 685,603.166107215879 C 835,603.166107215879 825,456.051798627582 975,456.051798627582 L 980,456.051798627582" style="stroke:LightCoral; stroke-width:0.0734980492600687; fill:none; stroke-opacity:0.7; stroke-linejoin:round;"/>
	<path id="i-2008-160-120" d="M 680,603.455895649954 L 685,603.455895649954 C 835,603.455895649954 825,477.844633279164 975,477.844633279164 L 980,477.844633279164" style="stroke:LightCoral; stroke-width:0.506078818890362; fill:none; stroke-opacity:0.7; stroke-linejoin:round;"/>
	<path id="i-190-2008-121" d="M 240,568.792448751838 L 245,568.792448751838 C 395,568.792448751838 385,592.048342753374 535,592.048342753374 L 540,592.048342753374" style="stroke:lawngreen; stroke-width:0.0271386800708811; fill:none; stroke-opacity:0.7; stroke-linejoin:round;"/>
	<path id="i-2008-284-122" d="M 680,604.649628726774 L 685,604.649628726774 C 835,604.649628726774 825,618.395806873641 975,618.395806873641 L 980,618.395806873641" style="stroke:silver; stroke-width:1.88138733474943; fill:none; stroke-opacity:0.7; stroke-linejoin:round;"/>
	<path id="i-2008-310-123" d="M 680,605.600617545255 L 685,605.600617545255 C 835,605.600617545255 825,673.273618829337 975,673.273618829337 L 980,673.273618829337" style="stroke:LightCoral; stroke-width:0.0205903022133742; fill:none; stroke-opacity:0.7; stroke-linejoin:round;"/>
	<path id="i-320-2008-124" d="M 240,688.643293834985 L 245,688.643293834985 C 395,688.643293834985 385,592.197517350347 535,592.197517350347 L 540,592.197517350347" style="stroke:lawngreen; stroke-width:0.271210513874792; fill:none; stroke-opacity:0.7; stroke-linejoin:round;"/>
	<path id="i-321-2008-125" d="M 240,716.860131107123 L 245,716.860131107123 C 395,716.860131107123 385,592.556247497049 535,592.556247497049 L 540,592.556247497049" style="stroke:lawngreen; stroke-width:0.446249779529583; fill:none; stroke-opacity:0.7; stroke-linejoin:round;"/>
	<path id="i-020-2009-126" d="M 240,105.869624538795 L 245,105.869624538795 C 395,105.869624538795 385,617.64820414202 535,617.64820414202 L 540,617.64820414202" style="stroke:lawngreen; stroke-width:0.0745828913155679; fill:none; stroke-opacity:0.7; stroke-linejoin:round;"/>
	<path id="i-2009-120-127" d="M 680,617.929246037022 L 685,617.929246037022 C 835,617.929246037022 825,280.523335907274 975,280.523335907274 L 980,280.523335907274" style="stroke:LightCoral; stroke-width:0.636666681321075; fill:none; stroke-opacity:0.7; stroke-linejoin:round;"/>
	<path id="i-2009-140-128" d="M 680,618.961744463344 L 685,618.961744463344 C 835,618.961744463344 825,407.690424067173 975,407.690424067173 L 980,407.690424067173" style="stroke:LightCoral; stroke-width:1.42833017132159; fill:none; stroke-opacity:0.7; stroke-linejoin:round;"/>
	<path id="i-2009-150-129" d="M 680,619.73455882263 L 685,619.73455882263 C 835,619.73455882263 825,456.147196925838 975,456.147196925838 L 980,456.147196925838" style="stroke:LightCoral; stroke-width:0.117298547250848; fill:none; stroke-opacity:0.7; stroke-linejoin:round;"/>
	<path id="i-2009-201-130" d="M 680,628.435870151772 L 685,628.435870151772 C 835,628.435870151772 825,546.317035583436 975,546.317035583436 L 980,546.317035583436" style="stroke:LightCoral; stroke-width:17.2853241110332; fill:none; stroke-opacity:0.7; stroke-linejoin:round;"/>
	<path id="i-282-2009-131" d="M 240,657.79594849733 L 245,657.79594849733 C 395,657.79594849733 385,618.175230582976 535,618.175230582976 L 540,618.175230582976" style="stroke:silver; stroke-width:0.979469990595965; fill:none; stroke-opacity:0.7; stroke-linejoin:round;"/>
	<path id="i-2009-284-132" d="M 680,638.097605713173 L 685,638.097605713173 C 835,638.097605713173 825,620.3555740469 975,620.3555740469 L 980,620.3555740469" style="stroke:silver; stroke-width:2.03814701176906; fill:none; stroke-opacity:0.7; stroke-linejoin:round;"/>
	<path id="i-2009-285-133" d="M 680,639.203669991383 L 685,639.203669991383 C 835,639.203669991383 825,648.555350273003 975,648.555350273003 L 980,648.555350273003" style="stroke:silver; stroke-width:0.173981544650679; fill:none; stroke-opacity:0.7; stroke-linejoin:round;"/>
	<path id="i-320-2009-134" d="M 240,688.812800406157 L 245,688.812800406157 C 395,688.812800406157 385,618.698866892508 535,618.698866892508 L 540,618.698866892508" style="stroke:lawngreen; stroke-width:0.0678026284686981; fill:none; stroke-opacity:0.7; stroke-linejoin:round;"/>
	<path id="i-020-2010-135" d="M 240,107.606205799924 L 245,107.606205799924 C 395,107.606205799924 385,652.989950579179 535,652.989950579179 L 540,652.989950579179" style="stroke:lawngreen; stroke-width:3.3985796309421; fill:none; stroke-opacity:0.7; stroke-linejoin:round;"/>
	<path id="i-080-2010-136" d="M 240,535.339436197658 L 245,535.339436197658 C 395,535.339436197658 385,654.726735248193 535,654.726735248193 L 540,654.726735248193" style="stroke:lawngreen; stroke-width:0.0749897070863801; fill:none; stroke-opacity:0.7; stroke-linejoin:round;"/>
	<path id="i-2010-140-137" d="M 680,651.738619169475 L 685,651.738619169475 C 835,651.738619169475 825,408.852547558601 975,408.852547558601 L 980,408.852547558601" style="stroke:LightCoral; stroke-width:0.895916811533989; fill:none; stroke-opacity:0.7; stroke-linejoin:round;"/>
	<path id="i-2010-150-138" d="M 680,652.192476403919 L 685,652.192476403919 C 835,652.192476403919 825,456.21174502814 975,456.21174502814 L 980,456.21174502814" style="stroke:LightCoral; stroke-width:0.0117976573535535; fill:none; stroke-opacity:0.7; stroke-linejoin:round;"/>
	<path id="i-2010-160-139" d="M 680,652.326386595145 L 685,652.326386595145 C 835,652.326386595145 825,478.225684051158 975,478.225684051158 L 980,478.225684051158" style="stroke:LightCoral; stroke-width:0.256022725097804; fill:none; stroke-opacity:0.7; stroke-linejoin:round;"/>
	<path id="i-282-2010-140" d="M 240,658.341281647973 L 245,658.341281647973 C 395,658.341281647973 385,654.819828257081 535,654.819828257081 L 540,654.819828257081" style="stroke:silver; stroke-width:0.111196310688665; fill:none; stroke-opacity:0.7; stroke-linejoin:round;"/>
	<path id="i-2010-284-141" d="M 680,654.229267363118 L 685,654.229267363118 C 835,654.229267363118 825,623.14951695821 975,623.14951695821 L 980,623.14951695821" style="stroke:silver; stroke-width:3.54973881085022; fill:none; stroke-opacity:0.7; stroke-linejoin:round;"/>
	<path id="i-2010-285-142" d="M 680,656.044479332483 L 685,656.044479332483 C 835,656.044479332483 825,648.682683609267 975,648.682683609267 L 980,648.682683609267" style="stroke:silver; stroke-width:0.0806851278777507; fill:none; stroke-opacity:0.7; stroke-linejoin:round;"/>
	<path id="i-2010-310-143" d="M 680,656.144827222616 L 685,656.144827222616 C 835,656.144827222616 825,673.343919306638 975,673.343919306638 L 980,673.343919306638" style="stroke:LightCoral; stroke-width:0.120010652389596; fill:none; stroke-opacity:0.7; stroke-linejoin:round;"/>
	<path id="i-320-2010-144" d="M 240,688.87794517159 L 245,688.87794517159 C 395,688.87794517159 385,654.906669863624 535,654.906669863624 L 540,654.906669863624" style="stroke:lawngreen; stroke-width:0.0624869023967521; fill:none; stroke-opacity:0.7; stroke-linejoin:round;"/>
	<path id="i-020-2011-145" d="M 240,109.634948587125 L 245,109.634948587125 C 395,109.634948587125 385,668.53428552054 535,668.53428552054 L 540,668.53428552054" style="stroke:lawngreen; stroke-width:0.658905943458808; fill:none; stroke-opacity:0.7; stroke-linejoin:round;"/>
	<path id="i-2011-120-146" d="M 680,668.29297596582 L 685,668.29297596582 C 835,668.29297596582 825,280.929812664944 975,280.929812664944 L 980,280.929812664944" style="stroke:LightCoral; stroke-width:0.176286834018615; fill:none; stroke-opacity:0.7; stroke-linejoin:round;"/>
	<path id="i-2011-140-147" d="M 680,668.670704409019 L 685,668.670704409019 C 835,668.670704409019 825,409.590090990558 975,409.590090990558 L 980,409.590090990558" style="stroke:LightCoral; stroke-width:0.579170052379619; fill:none; stroke-opacity:0.7; stroke-linejoin:round;"/>
	<path id="i-2011-141-148" d="M 680,668.962526921949 L 685,668.962526921949 C 835,668.962526921949 825,435.362600920111 975,435.362600920111 L 980,435.362600920111" style="stroke:LightCoral; stroke-width:0.00447497347893407; fill:none; stroke-opacity:0.7; stroke-linejoin:round;"/>
	<path id="i-2011-150-149" d="M 680,669.082334166453 L 685,669.082334166453 C 835,669.082334166453 825,456.335213614581 975,456.335213614581 L 980,456.335213614581" style="stroke:LightCoral; stroke-width:0.235139515529445; fill:none; stroke-opacity:0.7; stroke-linejoin:round;"/>
	<path id="i-2011-160-150" d="M 680,669.488539713609 L 685,669.488539713609 C 835,669.488539713609 825,478.642331203099 975,478.642331203099 L 980,478.642331203099" style="stroke:LightCoral; stroke-width:0.577271578782495; fill:none; stroke-opacity:0.7; stroke-linejoin:round;"/>
	<path id="i-2011-200-151" d="M 680,669.778667160827 L 685,669.778667160827 C 835,669.778667160827 825,519.172881870092 975,519.172881870092 L 980,519.172881870092" style="stroke:LightCoral; stroke-width:0.00298331565262271; fill:none; stroke-opacity:0.7; stroke-linejoin:round;"/>
	<path id="i-281-2011-152" d="M 240,631.190471201934 L 245,631.190471201934 C 395,631.190471201934 385,668.917980595045 535,668.917980595045 L 540,668.917980595045" style="stroke:silver; stroke-width:0.108484205549917; fill:none; stroke-opacity:0.7; stroke-linejoin:round;"/>
	<path id="i-282-2011-153" d="M 240,658.40691459233 L 245,658.40691459233 C 395,658.40691459233 385,668.982257486833 535,668.982257486833 L 540,668.982257486833" style="stroke:silver; stroke-width:0.0200695780267346; fill:none; stroke-opacity:0.7; stroke-linejoin:round;"/>
	<path id="i-2011-284-154" d="M 680,671.093631337348 L 685,671.093631337348 C 835,671.093631337348 825,626.23785888233 975,626.23785888233 L 980,626.23785888233" style="stroke:silver; stroke-width:2.62694503739124; fill:none; stroke-opacity:0.7; stroke-linejoin:round;"/>
	<path id="i-2011-285-155" d="M 680,672.422020434307 L 685,672.422020434307 C 835,672.422020434307 825,648.737942751469 975,648.737942751469 L 980,648.737942751469" style="stroke:silver; stroke-width:0.0298331565262271; fill:none; stroke-opacity:0.7; stroke-linejoin:round;"/>
	<path id="i-320-2011-156" d="M 240,689.037199985337 L 245,689.037199985337 C 395,689.037199985337 385,669.120303638395 535,669.120303638395 L 540,669.120303638395" style="stroke:lawngreen; stroke-width:0.256022725097804; fill:none; stroke-opacity:0.7; stroke-linejoin:round;"/>
	<path id="i-020-2012-157" d="M 240,110.614289752727 L 245,110.614289752727 C 395,110.614289752727 385,685.086825206442 535,685.086825206442 L 540,685.086825206442" style="stroke:lawngreen; stroke-width:1.29977638774494; fill:none; stroke-opacity:0.7; stroke-linejoin:round;"/>
	<path id="i-030-2012-158" d="M 240,154.340015489755 L 245,154.340015489755 C 395,154.340015489755 385,703.365396802176 535,703.365396802176 L 540,703.365396802176" style="stroke:lawngreen; stroke-width:35.257366803723; fill:none; stroke-opacity:0.7; stroke-linejoin:round;"/>
	<path id="i-070-2012-159" d="M 240,500.738086460496 L 245,500.738086460496 C 395,500.738086460496 385,720.999368809059 535,720.999368809059 L 540,720.999368809059" style="stroke:lawngreen; stroke-width:0.0105772100411169; fill:none; stroke-opacity:0.7; stroke-linejoin:round;"/>
	<path id="i-2012-110-160" d="M 680,684.440327143993 L 685,684.440327143993 C 835,684.440327143993 825,131.461658851677 975,131.461658851677 L 980,131.461658851677" style="stroke:LightCoral; stroke-width:0.00678026284686981; fill:none; stroke-opacity:0.7; stroke-linejoin:round;"/>
	<path id="i-2012-120-161" d="M 680,696.647176750487 L 685,696.647176750487 C 835,696.647176750487 825,293.221415557024 975,293.221415557024 L 980,293.221415557024" style="stroke:LightCoral; stroke-width:24.4069189501401; fill:none; stroke-opacity:0.7; stroke-linejoin:round;"/>
	<path id="i-2012-130-162" d="M 680,709.547647246215 L 685,709.547647246215 C 835,709.547647246215 825,325.903491336068 975,325.903491336068 L 980,325.903491336068" style="stroke:LightCoral; stroke-width:1.39402204131643; fill:none; stroke-opacity:0.7; stroke-linejoin:round;"/>
	<path id="i-2012-140-163" d="M 680,713.726865659769 L 685,713.726865659769 C 835,713.726865659769 825,413.361883409643 975,413.361883409643 L 980,413.361883409643" style="stroke:LightCoral; stroke-width:6.96441478579079; fill:none; stroke-opacity:0.7; stroke-linejoin:round;"/>
	<path id="i-2012-141-164" d="M 680,717.211378342032 L 685,717.211378342032 C 835,717.211378342032 825,435.367143696218 975,435.367143696218 L 980,435.367143696218" style="stroke:LightCoral; stroke-width:0.00461057873587147; fill:none; stroke-opacity:0.7; stroke-linejoin:round;"/>
	<path id="i-2012-150-165" d="M 680,717.612091876282 L 685,717.612091876282 C 835,717.612091876282 825,456.851191617228 975,456.851191617228 L 980,456.851191617228" style="stroke:LightCoral; stroke-width:0.79681648976414; fill:none; stroke-opacity:0.7; stroke-linejoin:round;"/>
	<path id="i-2012-160-166" d="M 680,718.613672304022 L 685,718.613672304022 C 835,718.613672304022 825,479.534139175347 975,479.534139175347 L 980,479.534139175347" style="stroke:LightCoral; stroke-width:1.20634436571508; fill:none; stroke-opacity:0.7; stroke-linejoin:round;"/>
	<path id="i-2012-161-167" d="M 680,719.223624749726 L 685,719.223624749726 C 835,719.223624749726 825,500.664609949419 975,500.664609949419 L 980,500.664609949419" style="stroke:LightCoral; stroke-width:0.0135605256937396; fill:none; stroke-opacity:0.7; stroke-linejoin:round;"/>
	<path id="i-282-2012-168" d="M 240,658.484752009812 L 245,658.484752009812 C 395,658.484752009812 385,721.072460042548 535,721.072460042548 L 540,721.072460042548" style="stroke:silver; stroke-width:0.135605256937396; fill:none; stroke-opacity:0.7; stroke-linejoin:round;"/>
	<path id="i-2012-284-169" d="M 680,720.054274751096 L 685,720.054274751096 C 835,720.054274751096 825,628.375201139549 975,628.375201139549 L 980,628.375201139549" style="stroke:silver; stroke-width:1.6477394770463; fill:none; stroke-opacity:0.7; stroke-linejoin:round;"/>
	<path id="i-2012-285-170" d="M 680,721.405170930575 L 685,721.405170930575 C 835,721.405170930575 825,649.279885770688 975,649.279885770688 L 980,649.279885770688" style="stroke:silver; stroke-width:1.05405288191153; fill:none; stroke-opacity:0.7; stroke-linejoin:round;"/>
	<path id="i-2012-310-171" d="M 680,721.966098685765 L 685,721.966098685765 C 835,721.966098685765 825,673.437825947068 975,673.437825947068 L 980,673.437825947068" style="stroke:LightCoral; stroke-width:0.0678026284686981; fill:none; stroke-opacity:0.7; stroke-linejoin:round;"/>
	<path id="i-320-2012-172" d="M 240,689.595080012377 L 245,689.595080012377 C 395,689.595080012377 385,721.570131335508 535,721.570131335508 L 540,721.570131335508" style="stroke:lawngreen; stroke-width:0.859737328983091; fill:none; stroke-opacity:0.7; stroke-linejoin:round;"/>
	<rect x="10" y="70" width="230" height="41.264177946599" style="fill:lawngreen; fill-opacity:1;"/>
	<rect x="10" y="136.464177946599" width="230" height="35.5045209450171" style="fill:lawngreen; fill-opacity:1;"/>
	<rect x="10" y="197.168698891616" width="230" height="224.153862454433" style="fill:lawngreen; fill-opacity:1;"/>
	<rect x="10" y="446.522561346049" width="230" height="0.914657458042737" style="fill:lawngreen; fill-opacity:1;"/>
	<rect x="10" y="472.637218804092" width="230" height="2.67820382451357" style="fill:lawngreen; fill-opacity:1;"/>
	<rect x="10" y="500.515422628605" width="230" height="0.227952436911763" style="fill:lawngreen; fill-opacity:1;"/>
	<rect x="10" y="525.943375065517" width="230" height="9.43355598568398" style="fill:lawngreen; fill-opacity:1;"/>
	<rect x="10" y="560.576931051201" width="230" height="8.22908704067235" style="fill:lawngreen; fill-opacity:1;"/>
	<rect x="10" y="594.006018091874" width="230" height="37.2386952128353" style="fill:silver; fill-opacity:1;"/>
	<rect x="10" y="656.444713304709" width="230" height="2.10784133357204" style="fill:silver; fill-opacity:1;"/>
	<rect x="10" y="683.752554638281" width="230" height="6.27239403858787" style="fill:lawngreen; fill-opacity:1;"/>
	<rect x="10" y="715.224948676869" width="230" height="1.85830732001869" style="fill:lawngreen; fill-opacity:1;"/>
	<rect x="540" y="90" width="140" height="79.0612006838226" style="fill:silver; fill-opacity:1;"/>
	<rect x="540" y="181.061200683823" width="140" height="39.0758074311947" style="fill:silver; fill-opacity:1;"/>
	<rect x="540" y="232.137008115017" width="140" height="145.231955490536" style="fill:silver; fill-opacity:1;"/>
	<rect x="540" y="389.368963605553" width="140" height="21.0289174169382" style="fill:silver; fill-opacity:1;"/>
	<rect x="540" y="422.397881022492" width="140" height="10.392922496939" style="fill:silver; fill-opacity:1;"/>
	<rect x="540" y="444.79080351943" width="140" height="11.8175913263233" style="fill:silver; fill-opacity:1;"/>
	<rect x="540" y="468.608394845754" width="140" height="109.765539622718" style="fill:silver; fill-opacity:1;"/>
	<rect x="540" y="590.373934468472" width="140" height="15.2369782278898" style="fill:silver; fill-opacity:1;"/>
	<rect x="540" y="617.610912696362" width="140" height="21.6797480673464" style="fill:silver; fill-opacity:1;"/>
	<rect x="540" y="651.290660763708" width="140" height="4.91417178510291" style="fill:silver; fill-opacity:1;"/>
	<rect x="540" y="668.204832548811" width="140" height="4.2321044637592" style="fill:silver; fill-opacity:1;"/>
	<rect x="540" y="684.43693701257" width="140" height="37.5630629874295" style="fill:silver; fill-opacity:1;"/>
	<rect x="980" y="70" width="230" height="61.4650489831004" style="fill:LightCoral; fill-opacity:1;"/>
	<rect x="980" y="149.9650489831" width="230" height="155.459826048994" style="fill:LightCoral; fill-opacity:1;"/>
	<rect x="980" y="323.924875032094" width="230" height="2.67562732463176" style="fill:LightCoral; fill-opacity:1;"/>
	<rect x="980" y="345.100502356726" width="230" height="71.7435884458127" style="fill:LightCoral; fill-opacity:1;"/>
	<rect x="980" y="435.344090802539" width="230" height="0.0253581830472931" style="fill:LightCoral; fill-opacity:1;"/>
	<rect x="980" y="453.869448985586" width="230" height="3.38015087652431" style="fill:LightCoral; fill-opacity:1;"/>
	<rect x="980" y="475.74959986211" width="230" height="4.38771149609486" style="fill:LightCoral; fill-opacity:1;"/>
	<rect x="980" y="498.637311358205" width="230" height="2.03407885406094" style="fill:LightCoral; fill-opacity:1;"/>
	<rect x="980" y="519.171390212266" width="230" height="0.00298331565262271" style="fill:LightCoral; fill-opacity:1;"/>
	<rect x="980" y="537.674373527919" width="230" height="17.2853241110332" style="fill:LightCoral; fill-opacity:1;"/>
	<rect x="980" y="573.459697638952" width="230" height="0.000678026284686981" style="fill:LightCoral; fill-opacity:1;"/>
	<rect x="980" y="591.960375665237" width="230" height="37.2386952128353" style="fill:silver; fill-opacity:1;"/>
	<rect x="980" y="647.699070878072" width="230" height="2.10784133357204" style="fill:silver; fill-opacity:1;"/>
	<rect x="980" y="668.306912211644" width="230" height="5.16481504965801" style="fill:LightCoral; fill-opacity:1;"/>
	<rect x="980" y="691.971727261302" width="230" height="1.62726308324875" style="fill:LightCoral; fill-opacity:1;"/>
	<rect x="980" y="712.098990344551" width="230" height="5.28426565233645" style="fill:LightCoral; fill-opacity:1;"/>
	<text x="15" y="90.6320889732995" style="font-family:sans-serif; font-size:14pt; fill:black;" text-anchor="start" dominant-baseline="central">020 Ertrge kirchlicher Ttigkeit</text>
	<text x="15" y="154.216438419108" style="font-family:sans-serif; font-size:14pt; fill:black;" text-anchor="start" dominant-baseline="central">030 Ertrge Kirchensteuern u.Zuweis.</text>
	<text x="15" y="309.245630118833" style="font-family:sans-serif; font-size:14pt; fill:black;" text-anchor="start" dominant-baseline="central">035 Ertrge aus Umlagen</text>
	<text x="15" y="446.97989007507" style="font-family:sans-serif; font-size:14pt; fill:black;" text-anchor="start" dominant-baseline="central">040 Zuschsse von Dritten</text>
	<text x="15" y="473.976320716349" style="font-family:sans-serif; font-size:14pt; fill:black;" text-anchor="start" dominant-baseline="central">050 Kollekten und Spenden</text>
	<text x="15" y="500.629398847061" style="font-family:sans-serif; font-size:14pt; fill:black;" text-anchor="start" dominant-baseline="central">070 Ertrge Auflsung v. Sonderposten</text>
	<text x="15" y="530.660153058359" style="font-family:sans-serif; font-size:14pt; fill:black;" text-anchor="start" dominant-baseline="central">080 Sonstige ordentliche Ertrge</text>
	<text x="15" y="564.691474571537" style="font-family:sans-serif; font-size:14pt; fill:black;" text-anchor="start" dominant-baseline="central">190 Finanzertrge</text>
	<text x="15" y="612.625365698292" style="font-family:sans-serif; font-size:14pt; fill:black;" text-anchor="start" dominant-baseline="central">281 Entlastung Personalkosten</text>
	<text x="15" y="657.498633971495" style="font-family:sans-serif; font-size:14pt; fill:black;" text-anchor="start" dominant-baseline="central">282 Entlastung sonst.budgetwirks.ILV</text>
	<text x="15" y="686.888751657575" style="font-family:sans-serif; font-size:14pt; fill:black;" text-anchor="start" dominant-baseline="central">320 Entnahmen aus Rcklagen</text>
	<text x="15" y="716.154102336878" style="font-family:sans-serif; font-size:14pt; fill:black;" text-anchor="start" dominant-baseline="central">321 Entnahmen aus Kollekten</text>
	<text x="610" y="129.530600341911" style="font-family:sans-serif; font-size:14pt; fill:black;" text-anchor="middle" dominant-baseline="central">Leitung und Verwaltung</text>
	<text x="610" y="200.59910439942" style="font-family:sans-serif; font-size:14pt; fill:black;" text-anchor="middle" dominant-baseline="central">Recht</text>
	<text x="610" y="304.752985860285" style="font-family:sans-serif; font-size:14pt; fill:black;" text-anchor="middle" dominant-baseline="central">Finanzen</text>
	<text x="610" y="399.883422314022" style="font-family:sans-serif; font-size:14pt; fill:black;" text-anchor="middle" dominant-baseline="central">Kirchliche Handlungsfelder</text>
	<text x="610" y="427.594342270962" style="font-family:sans-serif; font-size:14pt; fill:black;" text-anchor="middle" dominant-baseline="central">Bildung</text>
	<text x="610" y="450.699599182592" style="font-family:sans-serif; font-size:14pt; fill:black;" text-anchor="middle" dominant-baseline="central">ffentliche Verantwortung</text>
	<text x="610" y="523.491164657113" style="font-family:sans-serif; font-size:14pt; fill:black;" text-anchor="middle" dominant-baseline="central">kumene</text>
	<text x="610" y="597.992423582417" style="font-family:sans-serif; font-size:14pt; fill:black;" text-anchor="middle" dominant-baseline="central">Auslandsarbeit</text>
	<text x="610" y="628.450786730035" style="font-family:sans-serif; font-size:14pt; fill:black;" text-anchor="middle" dominant-baseline="central">Presse und ffentlichkeitsarbeit</text>
	<text x="610" y="653.74774665626" style="font-family:sans-serif; font-size:14pt; fill:black;" text-anchor="middle" dominant-baseline="central">Rechnungsprfung, Datenschutz und Arbeitsrechtsregelung</text>
	<text x="610" y="670.320884780691" style="font-family:sans-serif; font-size:14pt; fill:black;" text-anchor="middle" dominant-baseline="central">Bevollmchtigter des Rates der EKD</text>
	<text x="610" y="703.218468506285" style="font-family:sans-serif; font-size:14pt; fill:black;" text-anchor="middle" dominant-baseline="central">Evangelische Seelsorge in der Bundeswehr</text>
	<text x="1205" y="100.73252449155" style="font-family:sans-serif; font-size:14pt; fill:black;" text-anchor="end" dominant-baseline="central">Personalaufwendungen 110</text>
	<text x="1205" y="227.694962007597" style="font-family:sans-serif; font-size:14pt; fill:black;" text-anchor="end" dominant-baseline="central">Zuweisungen 120</text>
	<text x="1205" y="325.26268869441" style="font-family:sans-serif; font-size:14pt; fill:black;" text-anchor="end" dominant-baseline="central">Zuschsse an Dritte 130</text>
	<text x="1205" y="380.972296579632" style="font-family:sans-serif; font-size:14pt; fill:black;" text-anchor="end" dominant-baseline="central">Sach- und Dienstaufwendungen 140</text>
	<text x="1205" y="435.356769894063" style="font-family:sans-serif; font-size:14pt; fill:black;" text-anchor="end" dominant-baseline="central">Verfgungsmittel 141</text>
	<text x="1205" y="455.559524423848" style="font-family:sans-serif; font-size:14pt; fill:black;" text-anchor="end" dominant-baseline="central">Abschreibungen 150</text>
	<text x="1205" y="477.943455610157" style="font-family:sans-serif; font-size:14pt; fill:black;" text-anchor="end" dominant-baseline="central">Sonstige ordentl. Aufwendungen 160</text>
	<text x="1205" y="499.654350785235" style="font-family:sans-serif; font-size:14pt; fill:black;" text-anchor="end" dominant-baseline="central">Verstrkungsmittel 161</text>
	<text x="1205" y="519.172881870092" style="font-family:sans-serif; font-size:14pt; fill:black;" text-anchor="end" dominant-baseline="central">Finanzaufwendungen 200</text>
	<text x="1205" y="546.317035583436" style="font-family:sans-serif; font-size:14pt; fill:black;" text-anchor="end" dominant-baseline="central">Aufwendungen aus Beteiligungen 201</text>
	<text x="1205" y="573.460036652094" style="font-family:sans-serif; font-size:14pt; fill:black;" text-anchor="end" dominant-baseline="central">Auerordentliche Aufwendungen 250</text>
	<text x="1205" y="610.579723271655" style="font-family:sans-serif; font-size:14pt; fill:black;" text-anchor="end" dominant-baseline="central">Belastung Personalkosten 284</text>
	<text x="1205" y="648.752991544858" style="font-family:sans-serif; font-size:14pt; fill:black;" text-anchor="end" dominant-baseline="central">Belastung sonst.budgetwirks.ILV 285</text>
	<text x="1205" y="670.889319736473" style="font-family:sans-serif; font-size:14pt; fill:black;" text-anchor="end" dominant-baseline="central">Zufhrungen zu Rcklagen 310</text>
	<text x="1205" y="692.785358802926" style="font-family:sans-serif; font-size:14pt; fill:black;" text-anchor="end" dominant-baseline="central">Zufhrungen zu Kollekten 311</text>
	<text x="1205" y="714.741123170719" style="font-family:sans-serif; font-size:14pt; fill:black;" text-anchor="end" dominant-baseline="central">Finanz.anteil fr Investitionen 325</text>
	<text x="610" y="60" style="font-family:sans-serif; font-size:9pt; fill:black;" text-anchor="middle" dominant-baseline="hanging">Source: https://www.kirchenfinanzen.de/download/haushaltsplan_2020_ekd.pdf</text>
	<text x="610" y="10" style="font-family:sans-serif; font-size:20pt; fill:black;" text-anchor="middle" dominant-baseline="hanging">Results Budget 2020</text>
</svg>
